<svg width="45" height="45" viewBox="0 0 45 45" fill="none" xmlns="http://www.w3.org/2000/svg">
<mask id="mask0_1799_1004" style="mask-type:luminance" maskUnits="userSpaceOnUse" x="0" y="0" width="45" height="45">
<path d="M0 -0.000114441H44.9999V44.9998H0V-0.000114441Z" fill="white"/>
</mask>
<g mask="url(#mask0_1799_1004)">
<path d="M7.77877 23.7231L8.10625 23.3349H37.6483C38.5344 23.3349 39.282 23.9945 39.3924 24.8738L40.6058 34.541L39.9191 36.87L41.1354 38.7596L41.5049 41.7041L41.1215 41.704C41.2532 42.7535 40.4351 43.6807 39.3774 43.6807L5.89379 44.0107C4.83612 44.0107 4.01795 43.0834 4.14969 42.034L6.03468 25.262C6.14507 24.3827 6.89258 23.7231 7.77877 23.7231Z" fill="#84BD93"/>
<path d="M39.8433 44.3406H5.15654C4.09834 44.3406 3.28008 43.4133 3.41192 42.3639L3.86438 38.7595L4.86765 36.998L4.39392 34.5408L5.60742 24.8737C5.71816 23.9948 6.46523 23.3348 7.35204 23.3348H8.10614L6.04863 39.7272C5.91679 40.7766 6.73505 41.7039 7.79325 41.7039H41.5054L41.588 42.3639C41.7198 43.4133 40.9016 44.3406 39.8433 44.3406Z" fill="#5A9369"/>
<path d="M41.1351 38.7595H35.4196C35.177 38.7595 34.9802 38.9564 34.9802 39.199V44.3406H30.5857V39.199C30.5857 38.9564 30.3887 38.7595 30.1462 38.7595H3.86426L4.88985 36.7512L4.39345 34.5408H8.91892C9.15886 34.5408 9.35486 34.3483 9.35837 34.1084L9.52009 23.3348H13.9164L13.7538 34.0943C13.7529 34.1526 13.7637 34.2105 13.7854 34.2646C13.807 34.3186 13.8393 34.3679 13.8802 34.4094C13.921 34.451 13.9698 34.484 14.0235 34.5065C14.0773 34.5291 14.1349 34.5407 14.1932 34.5408H40.6059L40.9146 37.0017L40.3826 37.8582L41.1351 38.7595Z" fill="#FFE2CD"/>
<path d="M9.52012 23.3348H11.2779L11.1162 34.1084C11.1144 34.2237 11.0673 34.3337 10.9851 34.4146C10.9029 34.4955 10.7921 34.5408 10.6768 34.5408H8.91895C9.15889 34.5408 9.35488 34.3483 9.3584 34.1084L9.52012 23.3348Z" fill="#3F2D20"/>
<path d="M41.1354 38.7595H35.4199C35.1773 38.7595 34.9805 38.9564 34.9805 39.199V37.4412C34.9805 37.1986 35.1773 37.0017 35.4199 37.0017H40.9148L41.1354 38.7595Z" fill="#3F2D20"/>
<path d="M30.1466 37.0017H6.78947C6.7396 37.0017 6.6903 36.9911 6.64484 36.9706C6.59938 36.9501 6.55881 36.9201 6.52582 36.8827C6.49282 36.8453 6.46816 36.8013 6.45348 36.7537C6.43879 36.706 6.43442 36.6558 6.44064 36.6063L6.70009 34.5408H4.39385L3.86475 38.7595H30.1466C30.3892 38.7595 30.5861 38.9564 30.5861 39.199V37.4412C30.5861 37.3246 30.5398 37.2128 30.4573 37.1304C30.3749 37.048 30.2631 37.0017 30.1466 37.0017Z" fill="#3F2D20"/>
<path d="M34.9805 44.3406H30.5859V41.7039H34.9805V44.3406Z" fill="#3F2D20"/>
<path d="M10.0986 14.4327C10.0986 9.39932 11.8266 4.9975 15.6464 2.59467C17.5994 1.36605 19.9265 0.66029 22.5 0.66029C30.1068 0.66029 35.5615 6.82677 35.5615 14.4336C35.5615 23.0508 28.0973 31.0794 24.4488 34.4436C23.6091 35.2178 22.8484 35.5334 22.5505 35.7639C22.4478 35.8432 22.3164 35.7423 22.2139 35.6629C20.6214 34.4312 10.0986 25.0332 10.0986 14.4327Z" fill="#3F2D20"/>
<path d="M24.4493 34.4441C23.609 35.2175 22.9718 35.7449 22.6739 35.9752C22.6242 36.014 22.5629 36.0352 22.4999 36.0352C22.4368 36.0352 22.3755 36.014 22.3258 35.9752C20.7341 34.7438 9.43848 25.0337 9.43848 14.4332C9.43848 9.39976 11.8265 4.99732 15.6462 2.5944C13.0244 5.11686 11.46 8.77749 11.46 12.8512C11.46 23.4517 22.7556 33.1618 24.3473 34.3931C24.3781 34.4177 24.4132 34.4344 24.4493 34.4441Z" fill="#755946"/>
<path d="M32.1677 14.4327C32.1677 16.6545 31.4182 18.7012 30.1583 20.334C28.3904 22.6249 25.6174 23.7061 22.4997 23.7061C17.1603 23.7061 13.3647 19.5749 13.3647 14.2354C13.3647 11.1173 14.3079 8.54136 16.5995 6.77345C18.2319 5.51398 20.2784 4.7648 22.4997 4.7648C27.8391 4.7648 32.1677 9.09332 32.1677 14.4327Z" fill="#FFE2CD"/>
<path d="M30.1579 20.3334C28.3904 22.6247 25.6174 24.1003 22.5 24.1003C17.1606 24.1003 12.832 19.7717 12.832 14.4324C12.832 11.3141 14.3086 8.54111 16.5999 6.77364C15.3395 8.40576 14.5898 10.4527 14.5898 12.6746C14.5898 18.0139 18.9184 22.3425 24.2578 22.3425C26.4796 22.3425 28.5257 21.5937 30.1579 20.3334Z" fill="#84BD93"/>
</g>
</svg>
