<svg width="21" height="24" viewBox="0 0 21 24" fill="none" xmlns="http://www.w3.org/2000/svg">
<path d="M9.86047 11.5609C11.4487 11.5609 12.8238 10.9912 13.9477 9.86731C15.0713 8.74362 15.6411 7.36869 15.6411 5.78029C15.6411 4.19235 15.0715 2.81728 13.9475 1.69317C12.8236 0.569624 11.4485 0 9.86047 0C8.27202 0 6.89704 0.569624 5.77336 1.69336C4.64967 2.81709 4.07981 4.19221 4.07981 5.78029C4.07981 7.36869 4.64963 8.74381 5.7734 9.86754C6.89746 10.9911 8.27259 11.5609 9.86043 11.5609H9.86047ZM6.768 2.68781C7.63021 1.82554 8.64173 1.40643 9.86047 1.40643C11.079 1.40643 12.0907 1.82554 12.9531 2.68781C13.8154 3.55021 14.2347 4.56187 14.2347 5.78024C14.2347 6.99899 13.8154 8.0105 12.9531 8.8729C12.0907 9.73536 11.079 10.1545 9.86047 10.1545C8.64205 10.1545 7.63063 9.73517 6.768 8.8729C5.90554 8.01069 5.48625 6.99903 5.48625 5.78029C5.48625 4.56187 5.90554 3.55021 6.768 2.68781ZM19.975 18.4548C19.9426 17.9872 19.877 17.477 19.7805 16.9383C19.6831 16.3956 19.5577 15.8825 19.4075 15.4136C19.2523 14.9289 19.0415 14.4503 18.7806 13.9916C18.5101 13.5155 18.1923 13.101 17.8356 12.7599C17.4626 12.403 17.0059 12.1161 16.4779 11.9067C15.9516 11.6986 15.3684 11.5931 14.7446 11.5931C14.4996 11.5931 14.2627 11.6936 13.8051 11.9916C13.4798 12.2034 13.1536 12.4137 12.8264 12.6225C12.512 12.8229 12.0861 13.0106 11.56 13.1805C11.0468 13.3466 10.5257 13.4308 10.0111 13.4308C9.49701 13.4308 8.97585 13.3466 8.46224 13.1805C7.93677 13.0107 7.51068 12.8231 7.19681 12.6227C6.83259 12.39 6.50306 12.1776 6.21722 11.9914C5.76 11.6935 5.52305 11.5929 5.27808 11.5929C4.65403 11.5929 4.07105 11.6986 3.54497 11.907C3.01725 12.1159 2.56041 12.4028 2.18705 12.7601C1.83038 13.1013 1.51252 13.5157 1.24224 13.9916C0.981711 14.4503 0.770774 14.9287 0.615477 15.4138C0.465478 15.8827 0.340087 16.3956 0.242681 16.9383C0.145978 17.4763 0.0806346 17.9866 0.0481972 18.4554C0.0163222 18.9137 0.000244141 19.3906 0.000244141 19.8726C0.000244141 21.1254 0.398493 22.1396 1.18384 22.8876C1.95947 23.6257 2.98561 24 4.2338 24H15.79C17.0378 24 18.0639 23.6257 18.8397 22.8876C19.6253 22.1401 20.0235 21.1256 20.0235 19.8724C20.0233 19.3888 20.0071 18.9118 19.975 18.4548ZM17.87 21.8686C17.3575 22.3564 16.6771 22.5935 15.7897 22.5935H4.23384C3.34636 22.5935 2.66593 22.3564 2.15358 21.8688C1.65099 21.3903 1.40673 20.7372 1.40673 19.8726C1.40673 19.4229 1.42154 18.9789 1.45126 18.5526C1.48013 18.1344 1.53929 17.6749 1.62704 17.1868C1.71362 16.7047 1.82382 16.2522 1.95493 15.8426C2.08074 15.4498 2.2523 15.061 2.46507 14.6863C2.66813 14.3292 2.90175 14.0229 3.15957 13.7761C3.40074 13.5452 3.70472 13.3563 4.06285 13.2146C4.39406 13.0834 4.76634 13.0116 5.17045 13.0008C5.21967 13.0271 5.30742 13.077 5.4495 13.1696C5.73862 13.3581 6.07186 13.5731 6.44029 13.8083C6.85561 14.0731 7.39059 14.3122 8.02982 14.5186C8.6833 14.7299 9.34982 14.8372 10.0114 14.8372C10.673 14.8372 11.3396 14.7299 11.9928 14.5188C12.6325 14.312 13.1674 14.0731 13.5832 13.8079C13.9602 13.567 14.2842 13.3583 14.5732 13.1696C14.7154 13.0772 14.8031 13.027 14.8523 13.0008C15.2566 13.0116 15.6289 13.0834 15.9603 13.2145C16.3182 13.3563 16.6222 13.5454 16.8633 13.7761C17.1212 14.0227 17.3548 14.3291 17.5578 14.6865C17.7708 15.061 17.9426 15.4501 18.0682 15.8425C18.1995 16.2526 18.3099 16.7049 18.3963 17.1866C18.4838 17.6757 18.5432 18.1353 18.5721 18.5528V18.5531C18.6019 18.9777 18.6169 19.4216 18.6171 19.8726C18.6169 20.7374 18.3727 21.3904 17.8701 21.8686H17.87Z" fill="black"/>
</svg>
