<svg width="45" height="45" viewBox="0 0 45 45" fill="none" xmlns="http://www.w3.org/2000/svg">
<mask id="mask0_1799_941" style="mask-type:luminance" maskUnits="userSpaceOnUse" x="0" y="0" width="45" height="45">
<path d="M0 0H44.9999V44.9999H0V0Z" fill="white"/>
</mask>
<g mask="url(#mask0_1799_941)">
<path d="M27.8419 0.659241H12.4485C11.7502 0.659241 11.1841 1.22525 11.1841 1.92363V28.7257C11.1841 29.424 11.7502 29.9901 12.4485 29.9901H32.5519C33.2502 29.9901 33.8164 29.424 33.8164 28.7257V6.63376L27.8419 0.659241Z" fill="#FFE2CD"/>
<path d="M29.0412 1.85853V28.7255C29.0412 29.4238 28.4752 29.9899 27.7769 29.9899H32.5518C33.2501 29.9899 33.8162 29.4238 33.8162 28.7255V6.63352L29.0412 1.85853Z" fill="#3F2D20"/>
<path d="M27.8418 6.03012V0.659224L33.8163 6.63366H28.4453C28.366 6.63366 28.2875 6.61805 28.2143 6.58772C28.1411 6.55738 28.0746 6.51293 28.0185 6.45688C27.9625 6.40084 27.918 6.3343 27.8877 6.26108C27.8574 6.18785 27.8418 6.10937 27.8418 6.03012Z" fill="#84BD93"/>
<path d="M14.2676 5.25329H24.2676H14.2676Z" fill="black"/>
<path d="M14.2676 5.25329H24.2676" stroke="black" stroke-width="2" stroke-miterlimit="10" stroke-linecap="round" stroke-linejoin="round"/>
<path d="M14.2676 8.25329H24.2676H14.2676Z" fill="black"/>
<path d="M14.2676 8.25329H24.2676" stroke="black" stroke-width="2" stroke-miterlimit="10" stroke-linecap="round" stroke-linejoin="round"/>
<path d="M31.4013 44.3407H13.5992C11.8811 44.3407 10.4409 43.0421 10.2638 41.3332L7.20996 11.8677H37.7904L34.7366 41.3332C34.5595 43.0421 33.1194 44.3407 31.4013 44.3407Z" fill="#3F2D20"/>
<path d="M33.0007 11.8677L29.8635 42.1372C29.7337 43.3893 28.6786 44.3407 27.4199 44.3407H31.4011C33.1193 44.3407 34.5593 43.042 34.7364 41.3332L37.7903 11.8677H33.0007Z" fill="#755946"/>
<path d="M38.4784 15.6903H6.52163C5.47142 15.6903 4.62012 14.8389 4.62012 13.7887V13.7692C4.62012 12.719 5.47142 11.8677 6.52163 11.8677H38.4784C39.5286 11.8677 40.38 12.719 40.38 13.7692V13.7887C40.38 14.8389 39.5286 15.6903 38.4784 15.6903Z" fill="#84BD93"/>
<path d="M38.4783 11.8677H35.5684V15.6903H38.4783C39.5285 15.6903 40.3799 14.839 40.3799 13.7887V13.7692C40.3799 12.7191 39.5285 11.8677 38.4783 11.8677Z" fill="#3F2D20"/>
<path d="M15.4219 39.1012C14.8046 39.1012 14.2837 38.6233 14.2396 37.9983L13.0274 20.8273C12.9813 20.1736 13.4737 19.6064 14.1274 19.5603C14.7824 19.5145 15.3482 20.0066 15.3944 20.6603L16.6066 37.8311C16.6527 38.4846 16.1603 39.052 15.5066 39.0982C15.4784 39.1002 15.4502 39.1012 15.4219 39.1012Z" fill="#FFE2CD"/>
<path d="M20.1407 39.1012C19.4984 39.1012 18.9704 38.5882 18.9552 37.9426L18.5511 20.7717C18.5356 20.1167 19.0542 19.5731 19.7093 19.5578C20.3617 19.539 20.9078 20.0608 20.9233 20.7159L21.3273 37.8869C21.3428 38.5419 20.8242 39.0855 20.1692 39.1008C20.1597 39.1011 20.1502 39.1012 20.1407 39.1012Z" fill="#FFE2CD"/>
<path d="M24.8593 39.1012C24.8499 39.1012 24.8404 39.1011 24.8309 39.1008C24.1759 39.0855 23.6572 38.5419 23.6727 37.8869L24.0768 20.7159C24.092 20.0704 24.62 19.5574 25.2623 19.5574C25.2717 19.5574 25.2812 19.5575 25.2907 19.5578C25.9458 19.5731 26.4644 20.1167 26.4489 20.7717L26.0449 37.9426C26.0297 38.5882 25.5016 39.1012 24.8593 39.1012Z" fill="#FFE2CD"/>
<path d="M29.5783 39.1012C29.5503 39.1012 29.522 39.1001 29.4935 39.0982C28.84 39.052 28.3475 38.4846 28.3936 37.8311L29.6058 20.6602C29.652 20.0065 30.2179 19.5144 30.8729 19.5603C31.5265 19.6064 32.019 20.1736 31.9729 20.8274L30.7606 37.9983C30.7164 38.6233 30.1955 39.1012 29.5783 39.1012Z" fill="#FFE2CD"/>
</g>
</svg>
