<svg width="45" height="45" viewBox="0 0 45 45" fill="none" xmlns="http://www.w3.org/2000/svg">
<mask id="mask0_1799_1147" style="mask-type:luminance" maskUnits="userSpaceOnUse" x="0" y="0" width="45" height="45">
<path d="M0 -0.000114441H44.9999V44.9998H0V-0.000114441Z" fill="white"/>
</mask>
<g mask="url(#mask0_1799_1147)">
<path d="M19.5958 28.853C21.1933 30.5503 23.8073 30.5503 25.4047 28.8529L26.0273 28.1913L25.1732 27.8605C25.0711 27.821 24.9834 27.7516 24.9216 27.6613C24.8598 27.5711 24.8267 27.4642 24.8267 27.3548V25.6336C24.1605 26.0942 23.3696 26.3405 22.5596 26.3398C21.6793 26.3398 20.9057 26.0981 20.273 25.6939V27.3353C20.273 27.4505 20.2382 27.5629 20.1731 27.6579C20.1081 27.753 20.0158 27.8261 19.9084 27.8677L19 28.2199L19.5958 28.853Z" fill="#FFE2CD"/>
<path d="M22.186 28.853C21.9013 28.5504 22.0134 28.0558 22.4007 27.9057L22.4987 27.8677C22.606 27.8261 22.6983 27.7529 22.7633 27.6579C22.8284 27.5629 22.8632 27.4504 22.8632 27.3353V26.3282C22.7622 26.3359 22.661 26.3398 22.5597 26.3398C21.6793 26.3398 20.9058 26.0981 20.273 25.6938V27.3353C20.273 27.4504 20.2382 27.5629 20.1731 27.6579C20.1081 27.753 20.0158 27.8261 19.9084 27.8677L19 28.2199L19.5958 28.853C20.7267 30.0545 22.3669 30.4043 23.7954 29.9046C23.206 29.6985 22.6525 29.3487 22.186 28.853Z" fill="#755946"/>
<path d="M22.5015 12.5286C19.4921 12.5286 17.0527 14.968 17.0527 17.9775V20.1721C17.4168 19.8345 18.0568 19.6511 18.5626 19.7187V19.4471C18.5626 19.2313 18.7468 19.0608 18.9606 19.077C21.0672 19.2284 23.0892 18.5589 24.7104 17.5C24.7836 17.4521 24.8714 17.4316 24.9583 17.4422C25.0451 17.4528 25.1255 17.4937 25.1851 17.5578C26.5709 19.0475 26.4407 18.9899 26.4407 19.1843V19.7175C26.995 19.6344 27.6085 19.8057 27.9503 20.1233V17.9775C27.9503 14.968 25.5109 12.5286 22.5015 12.5286Z" fill="#3F2D20"/>
<path d="M19.6894 17.9777C19.6894 15.423 21.4477 13.2799 23.8199 12.6903C23.3886 12.583 22.9459 12.5288 22.5015 12.5288C19.4921 12.5288 17.0527 14.9683 17.0527 17.9777V20.1724C17.417 19.8348 18.0568 19.6513 18.5626 19.7188V19.4474C18.5626 19.2315 18.7468 19.061 18.9606 19.0772C19.2031 19.0942 19.4463 19.1006 19.6894 19.0963V17.9777Z" fill="#755946"/>
<path d="M26.5015 19.5347V22.5196C26.5015 22.5519 26.4997 22.5839 26.499 22.6162C27.5553 22.776 28.3825 22.0129 28.3825 21.0755C28.3825 20.1363 27.5545 19.3769 26.5015 19.5347Z" fill="#755946"/>
<path d="M18.5017 22.5196V21.0278V19.5359C17.5821 19.4131 16.6206 20.1189 16.6206 21.0756C16.6206 22.0117 17.446 22.7763 18.504 22.6161C18.5033 22.584 18.5017 22.5519 18.5017 22.5196Z" fill="#F5D3BB"/>
<path d="M27.9517 20.0022C27.609 19.6455 27.0905 19.4467 26.5015 19.5351V22.5199C26.5015 22.5522 26.4997 22.5841 26.499 22.6164C27.0898 22.7059 27.6089 22.5064 27.9517 22.1493V20.0022Z" fill="#FFE2CD"/>
<path d="M18.5017 22.1493C18.2244 21.8607 18.0699 21.4759 18.0708 21.0757C18.0708 20.6758 18.2391 20.3202 18.5017 20.0502V19.536C17.5821 19.4132 16.6206 20.1189 16.6206 21.0757C16.6206 22.0117 17.446 22.7763 18.504 22.6161C18.5033 22.584 18.5017 22.5519 18.5017 22.5196V22.1493Z" fill="#755946"/>
<path d="M25.1848 17.3753C25.1252 17.3112 25.0449 17.2702 24.9581 17.2596C24.8712 17.249 24.7834 17.2695 24.7102 17.3173C23.089 18.3763 20.9451 19.0458 18.8384 18.8944C18.6247 18.8783 18.4404 19.0488 18.4404 19.2645V22.5197C18.4404 24.6119 20.0797 26.5227 22.5593 26.5227C24.7666 26.5227 26.5624 24.7269 26.5624 22.5197V19.0018C26.5624 18.8072 26.5707 18.8649 25.1848 17.3753Z" fill="#F5D3BB"/>
<path d="M21.0771 22.5197V18.7617C20.3429 18.8965 19.5885 18.9483 18.8384 18.8943C18.6248 18.8782 18.4404 19.0487 18.4404 19.2645V22.5197C18.4404 24.6119 20.0797 26.5227 22.5593 26.5227C23.0056 26.5227 23.4347 26.4482 23.836 26.3127C22.1352 25.7624 21.0771 24.1999 21.0771 22.5197Z" fill="#FFE2CD"/>
<path d="M25.9602 28.1654L25.3301 28.835C23.7744 30.4881 21.2286 30.4881 19.6727 28.8351L19.0687 28.1932L14.256 30.059C14.256 30.059 13.7669 30.2601 13.2471 30.735C15.5043 33.339 18.8361 34.9861 22.5528 34.9861C26.2695 34.9861 29.6014 33.339 31.8586 30.735C31.3388 30.2601 30.8497 30.059 30.8497 30.059L25.9602 28.1654Z" fill="#84BD93"/>
<path d="M15.7842 30.7722L17.3461 28.8609L14.256 30.059C14.256 30.059 13.7669 30.2601 13.2471 30.735C13.7681 31.3355 14.3456 31.8844 14.9717 32.3743C15.412 31.2555 15.7842 30.7722 15.7842 30.7722Z" fill="#5A9369"/>
<path d="M22.5527 34.8105C15.7539 34.8105 10.2423 29.2989 10.2423 22.5C10.2423 15.7012 15.7539 10.1896 22.5527 10.1896C29.3516 10.1896 34.8631 15.7012 34.8631 22.5C34.8631 29.2989 29.3516 34.8105 22.5527 34.8105ZM43.0029 17.9988H40.0926C39.9484 17.9988 39.8081 17.952 39.6927 17.8656C39.5773 17.7792 39.4929 17.6578 39.4523 17.5194C39.0995 16.3238 38.6201 15.1692 38.022 14.0755C37.9527 13.9488 37.9263 13.8032 37.9467 13.6603C37.9672 13.5174 38.0334 13.385 38.1354 13.2829L40.1958 11.2224C40.7386 10.6799 40.7386 9.80038 40.1958 9.25774L35.7949 4.85672C35.2523 4.31417 34.3727 4.31417 33.8301 4.85672L31.7696 6.91722C31.6675 7.01925 31.5351 7.08544 31.3922 7.10588C31.2494 7.12632 31.1037 7.09991 30.9771 7.0306C29.8834 6.43258 28.7289 5.95314 27.5333 5.60044C27.395 5.55979 27.2735 5.47545 27.1871 5.36004C27.1007 5.24463 27.054 5.10434 27.0539 4.96016V2.04985C27.0539 1.28257 26.4319 0.66066 25.6647 0.66066H19.4407C18.6733 0.66066 18.0514 1.28257 18.0514 2.04985V4.96008C18.0514 5.10426 18.0047 5.24456 17.9183 5.35998C17.8319 5.4754 17.7104 5.55973 17.5721 5.60036C16.3764 5.95312 15.2219 6.43262 14.1281 7.03069C14.0015 7.1 13.8558 7.12642 13.7129 7.10598C13.57 7.08554 13.4376 7.01934 13.3355 6.91731L11.2752 4.85672C10.7327 4.31417 9.85301 4.31417 9.31046 4.85672L4.90944 9.25774C4.3668 9.80038 4.3668 10.6799 4.90944 11.2224L6.96985 13.2829C7.07186 13.3851 7.13804 13.5175 7.15848 13.6604C7.17892 13.8033 7.15252 13.9489 7.08323 14.0755C6.48518 15.1693 6.00571 16.3238 5.65299 17.5194C5.61236 17.6578 5.52803 17.7792 5.41261 17.8656C5.29719 17.9521 5.15689 17.9988 5.01271 17.9988H2.10257C1.33529 17.9988 0.713379 18.6207 0.713379 19.388V25.612C0.713379 26.3792 1.33529 27.0012 2.10257 27.0012H5.01271C5.1569 27.0013 5.29721 27.048 5.41263 27.1344C5.52805 27.2208 5.61238 27.3423 5.65299 27.4807C6.00574 28.6763 6.48521 29.8307 7.08323 30.9245C7.15252 31.0511 7.17892 31.1968 7.15848 31.3396C7.13804 31.4825 7.07186 31.6149 6.96985 31.7171L4.90944 33.7776C4.3668 34.3201 4.3668 35.1996 4.90944 35.7424L9.31046 40.1433C9.85301 40.6858 10.7327 40.6858 11.2752 40.1433L13.3355 38.0827C13.4376 37.9807 13.57 37.9145 13.7129 37.894C13.8558 37.8736 14.0015 37.9 14.1281 37.9693C15.2218 38.5674 16.3764 39.0469 17.5721 39.3996C17.7104 39.4402 17.8319 39.5246 17.9183 39.64C18.0047 39.7554 18.0514 39.8957 18.0514 40.0399V42.9501C18.0514 43.7174 18.6734 44.3394 19.4408 44.3394H25.6646C26.4319 44.3394 27.0539 43.7174 27.0539 42.9501V40.0399C27.054 39.8957 27.1007 39.7554 27.1871 39.64C27.2735 39.5246 27.395 39.4402 27.5333 39.3996C28.7289 39.0468 29.8834 38.5674 30.9771 37.9694C31.1037 37.9001 31.2494 37.8737 31.3922 37.8941C31.5351 37.9146 31.6675 37.9808 31.7696 38.0828L33.8301 40.1433C34.3727 40.6858 35.2523 40.6858 35.7949 40.1433L40.1958 35.7424C40.7386 35.1996 40.7386 34.3201 40.1958 33.7776L38.1354 31.7171C38.0334 31.615 37.9672 31.4825 37.9467 31.3397C37.9263 31.1968 37.9527 31.0511 38.022 30.9245C38.62 29.8307 39.0995 28.6762 39.4523 27.4806C39.4929 27.3422 39.5773 27.2208 39.6927 27.1344C39.8081 27.048 39.9484 27.0013 40.0926 27.0012H43.0029C43.7701 27.0012 44.3921 26.3792 44.3921 25.612V19.388C44.3921 18.6207 43.7701 17.9988 43.0029 17.9988Z" fill="#3F2D20"/>
<path d="M6.96983 13.2828C7.07184 13.3849 7.13802 13.5173 7.15846 13.6602C7.1789 13.8031 7.1525 13.9487 7.08321 14.0754C6.48513 15.1691 6.00566 16.3236 5.65297 17.5192C5.61232 17.6575 5.52797 17.779 5.41254 17.8654C5.2971 17.9518 5.15679 17.9985 5.0126 17.9985H7.64931C7.7935 17.9985 7.93382 17.9518 8.04925 17.8654C8.16468 17.779 8.24903 17.6575 8.28968 17.5192C8.64237 16.3236 9.12184 15.1691 9.71992 14.0754C9.78921 13.9487 9.81561 13.8031 9.79517 13.6602C9.77473 13.5173 9.70855 13.3849 9.60654 13.2828L7.54613 11.2223C7.00349 10.6797 7.00349 9.80012 7.54613 9.25749L11.6111 5.19256L11.2751 4.85655C10.7327 4.31392 9.85299 4.31392 9.31044 4.85646L4.90942 9.25749C4.36678 9.80012 4.36678 10.6797 4.90942 11.2223L6.96983 13.2828Z" fill="#84BD93"/>
<path d="M3.35009 25.6119V19.388C3.35009 18.6207 3.972 17.9987 4.73937 17.9987H2.10266C1.33529 17.9987 0.713379 18.6207 0.713379 19.388V25.6119C0.713379 26.3791 1.33529 27.0012 2.10266 27.0012H4.73937C3.972 27.0012 3.35009 26.3791 3.35009 25.6119Z" fill="#84BD93"/>
<path d="M7.54613 35.7421C7.00349 35.1995 7.00349 34.3199 7.54613 33.7773L9.60654 31.7168C9.70857 31.6147 9.77476 31.4823 9.7952 31.3395C9.81564 31.1966 9.78923 31.0509 9.71992 30.9243C9.1219 29.8306 8.64243 28.6761 8.28968 27.4804C8.24905 27.3421 8.16472 27.2206 8.0493 27.1342C7.93388 27.0478 7.79358 27.0011 7.6494 27.0011H5.01269C5.15687 27.0011 5.29717 27.0478 5.41259 27.1342C5.52801 27.2206 5.61234 27.3421 5.65297 27.4804C6.00572 28.6761 6.48518 29.8306 7.08321 30.9243C7.15252 31.0509 7.17893 31.1966 7.15849 31.3395C7.13805 31.4823 7.07186 31.6147 6.96983 31.7168L4.90942 33.7773C4.36678 34.3199 4.36678 35.1995 4.90942 35.7421L9.31044 40.1431C9.85299 40.6857 10.7327 40.6857 11.2751 40.1431L11.6111 39.8071L7.54613 35.7421Z" fill="#84BD93"/>
<path d="M19.4409 0.660444C18.6736 0.660444 18.0516 1.28244 18.0516 2.04964V4.95986C18.0515 5.08389 18.0168 5.20544 17.9515 5.31086C17.8861 5.41628 17.7927 5.50139 17.6816 5.55664C18.0048 5.4321 19.0054 5.07737 20.1428 4.98316C20.4516 4.95758 20.6883 4.69786 20.6883 4.38805V2.04964C20.6883 1.28244 21.3103 0.660444 22.0776 0.660444H19.4409Z" fill="#84BD93"/>
<path d="M20.6881 42.95V40.8176C20.6881 40.3979 20.3698 40.0443 19.9519 40.0055C18.8549 39.9033 18.0388 39.6003 17.7197 39.4656C17.921 39.5833 18.0514 39.7989 18.0514 40.0398V42.95C18.0514 43.7173 18.6734 44.3394 19.4408 44.3394H22.0775C21.3101 44.3394 20.6881 43.7173 20.6881 42.95Z" fill="#84BD93"/>
</g>
</svg>
