<svg width="23" height="20" viewBox="0 0 23 20" fill="none" xmlns="http://www.w3.org/2000/svg">
<path d="M11.4943 19.7024H1.39169C0.62038 19.7024 0.0305548 19.1126 0.000307313 18.3413C-0.0148164 17.5246 0.529638 16.8894 1.3312 16.8894C4.29545 16.8743 7.27482 16.8592 10.2391 16.8592C14.02 16.8592 17.7858 16.8743 21.5667 16.8592C22.2171 16.8592 22.8825 17.4339 22.9732 17.9632C23.1094 18.7345 22.7161 19.4453 22.0205 19.6722C21.9448 19.7024 21.8541 19.7024 21.7785 19.7024H11.4943ZM21.476 13.1387C20.9315 8.82847 17.6497 5.33489 13.3848 4.51821C13.3243 4.50309 13.2487 4.48797 13.1882 4.47284C13.0521 4.44259 12.9613 4.3216 12.9613 4.18549V2.89997C13.0975 2.86973 13.2184 2.83948 13.3394 2.80923C13.9898 2.62775 14.4435 1.9623 14.3678 1.29686C14.3074 0.661663 13.7326 0.0264665 13.1579 0.0113428C12.0993 -0.00378093 11.0406 -0.00378093 9.98197 0.0113428C9.28627 0.0264665 8.7267 0.57092 8.65108 1.25149C8.57546 1.9623 8.99892 2.5975 9.66437 2.79411C9.78536 2.82436 9.90635 2.8546 10.0576 2.88485C10.0576 3.35369 10.0727 3.79227 10.0425 4.24599C10.0425 4.32161 9.90635 4.42747 9.81561 4.44259C6.48839 5.07779 4.03834 6.89264 2.4806 9.88713C1.73954 11.3088 1.40681 12.8514 1.43706 14.4696C1.45219 15.1653 2.05713 15.8005 2.69233 15.8005H20.1905C20.8862 15.8005 21.5062 15.2107 21.5214 14.515C21.5516 14.0764 21.5365 13.6076 21.476 13.1387ZM17.8009 13.7437H17.7404C17.4833 13.7437 17.2565 13.5471 17.2111 13.2748C16.7876 9.82664 13.9444 8.45038 13.8234 8.38989C13.5663 8.2689 13.4453 7.9513 13.5663 7.6942C13.6873 7.43709 14.0049 7.3161 14.262 7.43709C14.3981 7.49759 17.7556 9.1007 18.2546 13.1387C18.3 13.4412 18.0883 13.6983 17.8009 13.7437Z" fill="black"/>
</svg>
