<svg width="45" height="45" viewBox="0 0 45 45" fill="none" xmlns="http://www.w3.org/2000/svg">
<path d="M27.3403 1.50511L31.4854 9.9042C31.7032 10.3455 32.025 10.7272 32.4232 11.0165C32.8213 11.3057 33.2838 11.4939 33.7708 11.5646L43.0397 12.9115C44.2845 13.0923 44.7815 14.6221 43.8808 15.5001L37.1737 22.0379C36.8213 22.3815 36.5578 22.8055 36.4057 23.2735C36.2536 23.7416 36.2176 24.2395 36.3008 24.7246L37.8841 33.9561C38.0967 35.1959 36.7955 36.1413 35.6821 35.556L27.3917 31.1975C26.9561 30.9685 26.4713 30.8488 25.9792 30.8488C25.4871 30.8488 25.0024 30.9685 24.5668 31.1975L16.2763 35.556C15.1629 36.1413 13.8617 35.1959 14.0743 33.9561L15.6577 24.7246C15.7408 24.2395 15.7048 23.7416 15.5528 23.2735C15.4007 22.8055 15.1371 22.3815 14.7847 22.0379L8.07762 15.5001C7.17692 14.6221 7.67394 13.0923 8.91873 12.9115L18.1877 11.5646C18.6747 11.4939 19.1372 11.3058 19.5353 11.0165C19.9334 10.7272 20.2552 10.3455 20.473 9.9042L24.6182 1.50511C25.1751 0.377205 26.7836 0.377205 27.3403 1.50511Z" fill="#3F2D20"/>
<path d="M37.1737 22.038C36.8213 22.3815 36.5578 22.8056 36.4057 23.2736C36.2536 23.7416 36.2176 24.2396 36.3008 24.7247L37.8841 33.9562C38.0967 35.196 36.7955 36.1414 35.6821 35.556L27.3917 31.1975C26.9561 30.9686 26.4713 30.8489 25.9792 30.8489C25.4871 30.8489 25.0024 30.9686 24.5668 31.1975L16.2763 35.556C15.2461 36.0977 14.0558 35.3282 14.0522 34.228C23.4268 29.9537 30.3672 21.2839 32.2262 10.8591C32.6633 11.2366 33.1991 11.4814 33.7706 11.5648L43.0395 12.9116C44.2843 13.0925 44.7814 14.6223 43.8807 15.5003L37.1737 22.038Z" fill="#3F2D20"/>
<path d="M20.4833 29.8371H27.3085C28.2509 29.8371 29.0148 30.6011 29.0148 31.5434V35.8092C29.0148 36.2804 28.6329 36.6624 28.1617 36.6624V38.3687C28.1617 39.311 27.3977 40.075 26.4554 40.075V41.7813C26.4554 42.7237 25.6914 43.4876 24.7491 43.4876H15.5658C14.3112 43.4876 13.0739 43.1955 11.9517 42.6345C10.8296 42.0734 9.59226 41.7813 8.33768 41.7813H3.21875V31.5435H8.80376C9.74401 31.5435 10.6629 31.2652 11.4517 30.7393L11.4835 30.7182C12.3399 30.1472 12.9816 29.3071 13.307 28.3307L14.3969 25.0611C15.0376 23.1388 15.3643 21.1259 15.3643 19.0996C15.3643 18.4332 15.9044 17.8931 16.5708 17.8931C16.8908 17.8931 17.1978 18.0202 17.424 18.2465L18.0049 18.8273C18.4992 19.3217 18.7769 19.9921 18.7769 20.6912V20.9115C18.7769 22.3066 18.6058 23.6965 18.2674 25.0499L18.1306 25.597C17.9932 26.1467 17.9237 26.7112 17.9237 27.2779C17.9238 28.6913 19.0697 29.8371 20.4833 29.8371Z" fill="#84BD93"/>
<path d="M20.4833 29.8372H18.777C17.3634 29.8372 16.2175 28.6912 16.2175 27.2777C16.2175 26.7111 16.287 26.1465 16.4244 25.5968L16.5612 25.0497C16.8996 23.6962 17.0707 22.3064 17.0707 20.9113V20.691C17.0707 19.9919 16.7929 19.3215 16.2986 18.8271L15.7178 18.2462C15.8297 18.134 15.9627 18.045 16.1091 17.9844C16.2555 17.9237 16.4125 17.8926 16.5709 17.8928C16.8909 17.8928 17.1979 18.0199 17.4241 18.2462L18.005 18.8271C18.4993 19.3215 18.777 19.9919 18.777 20.691V20.9113C18.777 22.3063 18.6059 23.6962 18.2675 25.0497L18.1307 25.5968C17.9933 26.1465 17.9238 26.711 17.9238 27.2777C17.9238 28.6913 19.0697 29.8372 20.4833 29.8372ZM27.3085 29.8372H25.6022C26.5446 29.8372 27.3085 30.6011 27.3085 31.5435V32.8232C27.3085 32.9364 27.2636 33.0449 27.1836 33.1248C27.1036 33.2048 26.9951 33.2498 26.882 33.2498H23.0696C22.7192 33.2498 22.4137 33.5198 22.4033 33.87C22.4006 33.9557 22.4152 34.041 22.4462 34.1208C22.4772 34.2007 22.5239 34.2736 22.5835 34.3351C22.6432 34.3966 22.7145 34.4455 22.7935 34.4789C22.8724 34.5123 22.9572 34.5295 23.0428 34.5295H26.882C26.9951 34.5295 27.1036 34.5744 27.1836 34.6544C27.2636 34.7344 27.3085 34.8429 27.3085 34.956V35.8092C27.3085 36.2803 26.9266 36.6623 26.4554 36.6623H23.0696C22.7191 36.6623 22.4136 36.9323 22.4032 37.2825C22.4005 37.3682 22.4152 37.4535 22.4461 37.5334C22.4771 37.6133 22.5238 37.6861 22.5834 37.7476C22.6431 37.8091 22.7145 37.858 22.7934 37.8914C22.8723 37.9248 22.9571 37.942 23.0428 37.942H26.0288C26.1419 37.942 26.2504 37.9869 26.3304 38.0669C26.4103 38.1469 26.4553 38.2554 26.4553 38.3685C26.4553 39.3109 25.6913 40.0748 24.749 40.0748H23.0695C22.7191 40.0748 22.4135 40.3448 22.4031 40.6951C22.4005 40.7807 22.4151 40.866 22.446 40.9459C22.477 41.0258 22.5237 41.0986 22.5833 41.1601C22.643 41.2216 22.7144 41.2705 22.7933 41.3039C22.8722 41.3373 22.957 41.3545 23.0427 41.3545H24.3224C24.4355 41.3545 24.544 41.3995 24.624 41.4795C24.7039 41.5594 24.7489 41.6679 24.7489 41.7811C24.7489 42.7234 23.9849 43.4874 23.0426 43.4874H24.7489C25.6912 43.4874 26.4552 42.7234 26.4552 41.7811V40.0747C27.3976 40.0747 28.1615 39.3107 28.1615 38.3683V36.662C28.6327 36.662 29.0147 36.28 29.0147 35.8088V31.5429C29.0149 30.6011 28.251 29.8372 27.3085 29.8372Z" fill="#50785B"/>
<path d="M5.92327 43.4877H3.24463C2.75921 43.4877 2.36572 43.0942 2.36572 42.6088V30.7161C2.36572 30.2306 2.75921 29.8372 3.24463 29.8372H5.92327C6.40869 29.8372 6.80218 30.2306 6.80218 30.7161V42.6088C6.80218 43.0942 6.4086 43.4877 5.92327 43.4877Z" fill="#F9E7C7"/>
<path d="M3.19289 44.3408H1.53809C1.05267 44.3408 0.65918 43.9473 0.65918 43.4618V29.8628C0.65918 29.3774 1.05267 28.9839 1.53809 28.9839H3.19289C3.67831 28.9839 4.0718 29.3774 4.0718 29.8628V43.4618C4.0718 43.9473 3.67831 44.3408 3.19289 44.3408Z" fill="#84BD93"/>
<path d="M7.61774 15.9723C7.02 15.3896 6.80897 14.5346 7.06685 13.7407C7.3248 12.947 7.99814 12.3793 8.82413 12.2592L18.0931 10.9124C18.4743 10.8571 18.8364 10.7098 19.1481 10.4834C19.4597 10.2569 19.7117 9.95809 19.8821 9.6126L24.0273 1.21351C24.3967 0.464941 25.1447 0 25.9793 0C26.8139 0 27.5619 0.464941 27.9313 1.21342L32.0766 9.61251C32.1466 9.75423 32.2305 9.88866 32.327 10.0138C32.4339 10.1522 32.4814 10.3274 32.4591 10.5008C32.4369 10.6742 32.3466 10.8316 32.2082 10.9385C32.1397 10.9914 32.0614 11.0303 31.9779 11.053C31.8943 11.0757 31.8071 11.0816 31.7213 11.0706C31.6354 11.0595 31.5526 11.0317 31.4775 10.9886C31.4024 10.9456 31.3365 10.8881 31.2836 10.8196C31.1335 10.6252 31.0031 10.4163 30.8943 10.196L26.7491 1.79684C26.6012 1.49722 26.3134 1.31836 25.9793 1.31836C25.6453 1.31836 25.3574 1.49722 25.2095 1.79684L21.0643 10.1959C20.7993 10.7331 20.4076 11.1978 19.9229 11.5498C19.4383 11.9019 18.8754 12.1308 18.2826 12.2169L9.01371 13.5637C8.68298 13.6118 8.42396 13.8302 8.32069 14.148C8.21751 14.4657 8.29872 14.7947 8.53796 15.0281L13.6944 20.0544C13.8183 20.1767 13.8888 20.343 13.8904 20.5171C13.8921 20.6912 13.8249 20.8588 13.7034 20.9835C13.5819 21.1082 13.416 21.1797 13.2419 21.1825C13.0678 21.1853 12.8997 21.1192 12.7743 20.9985L7.61774 15.9723ZM28.3963 27.87C28.315 28.0248 28.2984 28.2055 28.3503 28.3724C28.4022 28.5394 28.5183 28.6789 28.673 28.7603L33.5648 31.332C33.6737 31.3893 33.7964 31.415 33.9191 31.4061C34.0418 31.3972 34.1595 31.3541 34.259 31.2818C34.3585 31.2095 34.4358 31.1108 34.4821 30.9969C34.5285 30.8829 34.542 30.7583 34.5212 30.6371L33.5871 25.19C33.3809 23.9879 33.5541 22.7731 34.088 21.6768C34.1628 21.5199 34.1726 21.3397 34.1152 21.1756C34.0578 21.0115 33.9379 20.8767 33.7816 20.8006C33.6253 20.7245 33.4453 20.7132 33.2807 20.7691C33.1161 20.8251 32.9803 20.9439 32.9028 21.0996C32.2473 22.4455 32.0346 23.937 32.2878 25.4128L32.9963 29.5435L29.2867 27.5933C29.1319 27.5119 28.9511 27.4954 28.7842 27.5473C28.6172 27.5992 28.4777 27.7153 28.3963 27.87ZM29.674 31.5435V35.8093C29.674 36.407 29.3254 36.9249 28.8208 37.1703V38.3687C28.8208 39.4444 28.0992 40.3547 27.1145 40.6408V41.7814C27.1145 43.0858 26.0533 44.1469 24.749 44.1469H15.5657C14.2158 44.1469 12.8642 43.8278 11.6568 43.2242C10.6258 42.7102 9.48965 42.442 8.33757 42.4406H7.46104V42.6346C7.46104 43.4685 6.78261 44.1469 5.9487 44.1469H4.57761C4.33213 44.651 3.81604 45 3.21864 45H1.51233C0.678428 45 0 44.3216 0 43.4877V29.8371C0 29.0032 0.678428 28.3248 1.51233 28.3248H3.21864C3.81604 28.3248 4.33213 28.6738 4.5777 29.1779H5.94879C6.7827 29.1779 7.46112 29.8564 7.46112 30.6903V30.8842H8.80365C9.61629 30.8842 10.4055 30.6444 11.086 30.1907L11.1183 30.1692C11.8487 29.6823 12.404 28.9552 12.6817 28.1221L13.7716 24.8525C14.3905 22.9976 14.7057 21.0549 14.7052 19.0994C14.7052 18.0707 15.5421 17.2337 16.5709 17.2337C17.0692 17.2337 17.5377 17.4277 17.8901 17.7801L18.4711 18.3611C19.0934 18.9833 19.4361 19.8108 19.4361 20.691V20.9113C19.4361 22.3589 19.2582 23.8051 18.9069 25.2096L18.7702 25.7567C18.6459 26.2541 18.583 26.7649 18.583 27.2776C18.583 28.3255 19.4354 29.1779 20.4833 29.1779H27.3085C28.6128 29.1779 29.674 30.2391 29.674 31.5435ZM6.14276 30.6903C6.14269 30.6389 6.12223 30.5896 6.08587 30.5533C6.04951 30.5169 6.00021 30.4964 5.94879 30.4964H4.73098V38.1555C4.73098 38.5196 4.43584 38.8147 4.0718 38.8147C3.70775 38.8147 3.41262 38.5196 3.41262 38.1555V29.8371C3.41255 29.7857 3.39209 29.7364 3.35573 29.7C3.31936 29.6637 3.27007 29.6432 3.21864 29.6431H1.51233C1.46091 29.6432 1.41161 29.6637 1.37525 29.7C1.33889 29.7364 1.31843 29.7857 1.31836 29.8371V43.4877C1.31843 43.5391 1.33889 43.5884 1.37525 43.6248C1.41161 43.6611 1.46091 43.6816 1.51233 43.6816H3.21864C3.27007 43.6816 3.31936 43.6611 3.35573 43.6248C3.39209 43.5884 3.41255 43.5391 3.41262 43.4877V40.6935C3.41262 40.3294 3.70775 40.0344 4.0718 40.0344C4.43584 40.0344 4.73098 40.3294 4.73098 40.6935V42.8285H5.9487C6.00012 42.8284 6.04942 42.808 6.08578 42.7716C6.12215 42.7352 6.14261 42.6859 6.14268 42.6345L6.14276 30.6903ZM28.3556 31.5435C28.3556 30.9662 27.8858 30.4964 27.3085 30.4964H20.4833C18.7085 30.4964 17.2646 29.0525 17.2646 27.2777C17.2646 26.6576 17.3409 26.0383 17.4913 25.437L17.628 24.8899C17.9531 23.5887 18.1176 22.2526 18.1178 20.9114V20.6911C18.1185 20.4314 18.0677 20.1742 17.9683 19.9343C17.869 19.6943 17.723 19.4765 17.5388 19.2934L16.958 18.7124C16.9073 18.6615 16.847 18.6211 16.7805 18.5936C16.7141 18.5661 16.6429 18.552 16.571 18.5522C16.4259 18.5524 16.2867 18.6101 16.1841 18.7127C16.0815 18.8153 16.0238 18.9545 16.0236 19.0996C16.0236 21.2005 15.6867 23.2763 15.0224 25.2696L13.9325 28.5391C13.5626 29.6489 12.8228 30.6176 11.8492 31.2666L11.8171 31.288C10.9197 31.8864 9.87759 32.2027 8.80374 32.2027H7.46112V41.1222H8.33766C9.68757 41.1222 11.0392 41.4413 12.2465 42.0449C13.2776 42.5589 14.4137 42.8271 15.5658 42.8285H24.7491C25.3265 42.8285 25.7962 42.3587 25.7962 41.7814V40.7342H23.0428C22.6788 40.7342 22.3836 40.4392 22.3836 40.0751C22.3836 39.7109 22.6788 39.4159 23.0428 39.4159H26.4554C27.0328 39.4159 27.5026 38.9461 27.5026 38.3687V37.3216H23.0428C22.6788 37.3216 22.3836 37.0266 22.3836 36.6624C22.3836 36.2983 22.6788 36.0033 23.0428 36.0033H28.1617C28.2132 36.0032 28.2625 35.9827 28.2988 35.9464C28.3352 35.91 28.3556 35.8607 28.3557 35.8093V33.909H23.0428C22.6788 33.909 22.3836 33.6139 22.3836 33.2498C22.3836 32.8857 22.6788 32.5906 23.0428 32.5906H28.3557L28.3556 31.5435ZM35.2521 20.0661L39.2094 16.2085C39.2975 16.1227 39.3599 16.0139 39.3894 15.8945C39.4189 15.7751 39.4144 15.6498 39.3764 15.5328C39.3383 15.4158 39.2683 15.3117 39.1743 15.2325C39.0802 15.1532 38.9658 15.1019 38.8441 15.0842L33.3748 14.2895C32.446 14.1547 31.5639 13.7959 30.8046 13.2442C30.0453 12.6926 29.4315 11.9645 29.0163 11.1227L26.5705 6.16685C26.516 6.05655 26.4318 5.96369 26.3273 5.89876C26.2229 5.83383 26.1023 5.79942 25.9793 5.79942C25.8563 5.79942 25.7358 5.83383 25.6313 5.89876C25.5268 5.96369 25.4426 6.05655 25.3882 6.16685L22.9422 11.123C22.5269 11.9647 21.9131 12.6927 21.1538 13.2443C20.3945 13.796 19.5124 14.1547 18.5836 14.2895L13.1145 15.0842C12.9415 15.1094 12.7856 15.2022 12.6811 15.3423C12.5765 15.4824 12.5319 15.6583 12.557 15.8313C12.6094 16.1917 12.9438 16.442 13.3041 16.3889L18.7732 15.5942C19.9135 15.4287 20.9966 14.9883 21.9288 14.311C22.8611 13.6337 23.6146 12.7398 24.1245 11.7064L25.9793 7.94804L27.8341 11.7062C28.3439 12.7396 29.0974 13.6335 30.0296 14.3108C30.9619 14.9882 32.0448 15.4286 33.1852 15.5942L37.3327 16.1968L34.3317 19.1221C34.2379 19.2136 34.1734 19.331 34.1467 19.4593C34.1199 19.5877 34.1319 19.7211 34.1813 19.8425C34.2307 19.9639 34.3152 20.0678 34.424 20.141C34.5327 20.2142 34.6609 20.2533 34.7919 20.2533C34.9639 20.2535 35.1291 20.1863 35.2521 20.0661ZM44.341 15.9722C44.9387 15.3896 45.1498 14.5346 44.8918 13.7407C44.6339 12.947 43.9605 12.3793 43.1345 12.2592L33.8656 10.9124C33.5051 10.8597 33.1708 11.1097 33.1185 11.47C33.0662 11.8303 33.3157 12.1647 33.676 12.2171L42.9449 13.5639C43.2757 13.612 43.5347 13.8304 43.638 14.1482C43.7411 14.4659 43.6599 14.7949 43.4207 15.0282L36.7136 21.566C36.2846 21.984 35.9637 22.5002 35.7786 23.0698C35.5935 23.6395 35.5497 24.2457 35.6511 24.836L37.2344 34.0676C37.2909 34.3969 37.1632 34.7107 36.8929 34.9072C36.6226 35.1035 36.2847 35.1281 35.9888 34.9725L31.6209 32.6762C31.4665 32.5978 31.2874 32.5833 31.1224 32.6359C30.9574 32.6885 30.8197 32.8039 30.7391 32.9572C30.6585 33.1105 30.6414 33.2894 30.6916 33.4552C30.7418 33.6209 30.8553 33.7603 31.0074 33.8431L35.3753 36.1394C35.6881 36.3047 36.0365 36.3913 36.3903 36.3917C36.8397 36.3917 37.2862 36.2508 37.6677 35.9737C38.343 35.4831 38.6748 34.6673 38.5337 33.8447L36.9504 24.6132C36.8852 24.2335 36.9134 23.8436 37.0324 23.4772C37.1515 23.1108 37.3578 22.7789 37.6337 22.51L44.341 15.9722Z" fill="#FFE2CD"/>
</svg>
