<svg width="27" height="27" viewBox="0 0 27 27" fill="none" xmlns="http://www.w3.org/2000/svg">
<g clip-path="url(#clip0_1486_308)">
<path d="M26.7129 10.9721L13.9145 1.60133C13.7942 1.51328 13.6491 1.46582 13.5001 1.46582C13.3511 1.46582 13.2059 1.51328 13.0857 1.60133L0.287169 10.9721C-0.0254402 11.201 -0.0933621 11.6399 0.135558 11.9526C0.364478 12.2652 0.803491 12.333 1.11605 12.1042L13.5 3.03681L25.884 12.1041C26.004 12.1923 26.149 12.2398 26.2979 12.2396C26.5139 12.2396 26.727 12.1402 26.8645 11.9525C27.0934 11.6399 27.0255 11.201 26.7129 10.9721Z" fill="black"/>
<path d="M23.3217 12.2629C22.9343 12.2629 22.6201 12.577 22.6201 12.9645V24.1309H17.008V18.0356C17.008 16.1013 15.4343 14.5277 13.5001 14.5277C11.566 14.5277 9.99225 16.1014 9.99225 18.0356V24.131H4.3801V12.9645C4.3801 12.5771 4.06596 12.263 3.67858 12.263C3.29119 12.263 2.97705 12.5771 2.97705 12.9645V24.8325C2.97705 25.22 3.29119 25.5341 3.67858 25.5341H10.6938C11.0627 25.5341 11.3646 25.249 11.3926 24.8872C11.3942 24.8708 11.3953 24.8528 11.3953 24.8325V18.0356C11.3953 16.875 12.3395 15.9308 13.5001 15.9308C14.6608 15.9308 15.605 16.875 15.605 18.0356V24.8325C15.605 24.8527 15.606 24.8704 15.6077 24.8865C15.6354 25.2487 15.9374 25.5341 16.3065 25.5341H23.3217C23.7092 25.5341 24.0232 25.22 24.0232 24.8325V12.9645C24.0232 12.577 23.7091 12.2629 23.3217 12.2629Z" fill="black"/>
</g>
<defs>
<clipPath id="clip0_1486_308">
<rect width="27" height="27" fill="white"/>
</clipPath>
</defs>
</svg>
