<svg width="30" height="38" viewBox="0 0 30 38" fill="none" xmlns="http://www.w3.org/2000/svg">
<path d="M19.9575 4.155V33.345C19.9575 35.2275 18.435 36.75 16.56 36.75H4.155C2.2725 36.75 0.75 35.2275 0.75 33.345V4.155C0.75 2.2725 2.2725 0.75 4.155 0.75H16.56C18.435 0.75 19.9575 2.2725 19.9575 4.155Z" fill="#3F2D20"/>
<path d="M16.56 37.5H4.155C3.05339 37.4988 1.99724 37.0607 1.21829 36.2817C0.439331 35.5028 0.00119114 34.4466 0 33.345V4.155C0.00119114 3.05339 0.439331 1.99724 1.21829 1.21829C1.99724 0.439331 3.05339 0.00119114 4.155 0H16.56C18.8468 0 20.7075 1.86375 20.7075 4.155V33.345C20.7075 35.6362 18.8468 37.5 16.56 37.5ZM4.155 1.5C3.45109 1.50079 2.77625 1.78077 2.27851 2.27851C1.78077 2.77625 1.50079 3.45109 1.5 4.155V33.345C1.50079 34.0489 1.78077 34.7238 2.27851 35.2215C2.77625 35.7192 3.45109 35.9992 4.155 36H16.56C17.2628 35.998 17.9362 35.7174 18.4325 35.2197C18.9288 34.722 19.2075 34.0479 19.2075 33.345V4.155C19.2077 3.45209 18.9291 2.7778 18.4327 2.28006C17.9364 1.78232 17.2629 1.50179 16.56 1.5H4.155Z" fill="#FFE2CD"/>
<path d="M14.6926 0.75L14.3476 1.7025C14.1869 2.1443 13.8942 2.52595 13.5091 2.79564C13.124 3.06533 12.6653 3.21 12.1951 3.21H8.51264C7.55264 3.21 6.69014 2.61 6.36764 1.7025L6.01514 0.75H14.6926Z" fill="#544F55"/>
<path d="M12.1952 3.95925H8.51274C7.88862 3.95951 7.27967 3.7669 6.76923 3.40776C6.25879 3.04863 5.87181 2.54053 5.66124 1.953L5.31249 1.01025C5.27056 0.896907 5.25663 0.775109 5.2719 0.655225C5.28717 0.535342 5.33119 0.420925 5.4002 0.321715C5.46922 0.222505 5.56118 0.141442 5.66827 0.0854269C5.77535 0.029412 5.89439 0.000104536 6.01524 0H14.6927C14.8132 0.000229742 14.9318 0.0294044 15.0386 0.0850657C15.1454 0.140727 15.2373 0.221244 15.3065 0.319834C15.3756 0.418423 15.4201 0.532197 15.4361 0.651568C15.4522 0.770939 15.4392 0.892412 15.3985 1.00575L15.0535 1.95825C14.8386 2.54388 14.4495 3.04961 13.9384 3.40737C13.4274 3.76513 12.819 3.95773 12.1952 3.95925ZM7.09299 1.5C7.20673 1.78343 7.40277 2.02629 7.65582 2.19727C7.90887 2.36824 8.20734 2.45949 8.51274 2.45925H12.1952C12.5013 2.45862 12.8003 2.36712 13.0542 2.19634C13.3082 2.02556 13.5057 1.7832 13.6217 1.5H7.09299ZM14.9792 34.7325H5.72949C5.53058 34.7325 5.33982 34.6535 5.19916 34.5128C5.05851 34.3722 4.97949 34.1814 4.97949 33.9825C4.97949 33.7836 5.05851 33.5928 5.19916 33.4522C5.33982 33.3115 5.53058 33.2325 5.72949 33.2325H14.9792C15.1782 33.2325 15.3689 33.3115 15.5096 33.4522C15.6502 33.5928 15.7292 33.7836 15.7292 33.9825C15.7292 34.1814 15.6502 34.3722 15.5096 34.5128C15.3689 34.6535 15.1782 34.7325 14.9792 34.7325Z" fill="#FFE2CD"/>
<path d="M24.351 27.0976H15.57C14.4907 27.0976 13.4556 26.6688 12.6924 25.9056C11.9292 25.1425 11.5005 24.1074 11.5005 23.0281H28.4205C28.4205 24.1074 27.9917 25.1425 27.2286 25.9056C26.4654 26.6688 25.4303 27.0976 24.351 27.0976Z" fill="#84BD93"/>
<path d="M24.351 27.8476H15.57C14.2923 27.846 13.0673 27.3377 12.1638 26.4342C11.2604 25.5307 10.7521 24.3058 10.7505 23.0281C10.7505 22.8292 10.8295 22.6384 10.9702 22.4977C11.1108 22.3571 11.3016 22.2781 11.5005 22.2781H28.4205C28.6194 22.2781 28.8102 22.3571 28.9508 22.4977C29.0915 22.6384 29.1705 22.8292 29.1705 23.0281C29.1689 24.3058 28.6606 25.5307 27.7571 26.4342C26.8536 27.3377 25.6287 27.846 24.351 27.8476ZM12.336 23.7781C12.5064 24.5082 12.9186 25.1594 13.5057 25.6258C14.0927 26.0922 14.8202 26.3466 15.57 26.3476H24.351C25.1008 26.3466 25.8282 26.0922 26.4153 25.6258C27.0023 25.1594 27.4145 24.5082 27.585 23.7781H12.336Z" fill="#FFE2CD"/>
<path d="M18.7822 10.4048H21.138C25.1595 10.4048 28.4205 13.665 28.4205 17.6865H11.5005C11.5005 13.665 14.7607 10.4048 18.7822 10.4048Z" fill="#84BD93"/>
<path d="M28.4205 18.4365H11.5005C11.3016 18.4365 11.1108 18.3575 10.9702 18.2169C10.8295 18.0762 10.7505 17.8854 10.7505 17.6865C10.7505 13.2578 14.3535 9.65479 18.7822 9.65479H21.138C25.5667 9.65479 29.1705 13.2578 29.1705 17.6865C29.1705 17.8854 29.0915 18.0762 28.9508 18.2169C28.8102 18.3575 28.6194 18.4365 28.4205 18.4365ZM12.2932 16.9365H27.6277C27.2542 13.6868 24.4867 11.1548 21.138 11.1548H18.7822C15.4342 11.1548 12.6667 13.6868 12.2932 16.9365ZM28.3267 21.4425C27.5317 21.4425 27.1057 21.204 26.763 21.0128C26.4967 20.8635 26.3355 20.7735 25.9327 20.7735C25.5292 20.7735 25.3687 20.8635 25.1017 21.0128C24.759 21.204 24.3322 21.4425 23.538 21.4425C22.7445 21.4425 22.3005 21.1935 21.9757 21.0128C21.7095 20.8635 21.549 20.7735 21.147 20.7735C20.745 20.7735 20.5845 20.8635 20.3182 21.012C19.9935 21.1935 19.5502 21.4425 18.7567 21.4425C17.964 21.4425 17.52 21.1935 17.1952 21.0128C16.929 20.8635 16.7685 20.7735 16.3665 20.7735C15.966 20.7735 15.8055 20.8635 15.54 21.012C15.216 21.1935 14.772 21.4425 13.9792 21.4425C13.1865 21.4425 12.7432 21.1935 12.4192 21.012C12.1545 20.8635 11.9947 20.7735 11.595 20.7735C11.3961 20.7735 11.2053 20.6945 11.0647 20.5539C10.924 20.4132 10.845 20.2224 10.845 20.0235C10.845 19.8246 10.924 19.6339 11.0647 19.4932C11.2053 19.3526 11.3961 19.2735 11.595 19.2735C12.387 19.2735 12.8302 19.5225 13.1542 19.704C13.4197 19.8525 13.5795 19.9425 13.98 19.9425C14.3812 19.9425 14.5417 19.8525 14.8072 19.704C15.1312 19.5225 15.5745 19.2735 16.3672 19.2735C17.1607 19.2735 17.6047 19.5225 17.9295 19.704C18.195 19.8525 18.3562 19.9425 18.7575 19.9425C19.1595 19.9425 19.32 19.8525 19.5855 19.704C19.9102 19.5225 20.3535 19.2735 21.1477 19.2735C21.942 19.2735 22.3852 19.5225 22.71 19.704C22.9762 19.8525 23.1367 19.9425 23.5387 19.9425C23.9422 19.9425 24.1035 19.8525 24.3705 19.7033C24.7132 19.512 25.1392 19.2735 25.9335 19.2735C26.727 19.2735 27.1537 19.512 27.4957 19.7033C27.7627 19.8525 27.924 19.9425 28.3275 19.9425C28.426 19.9426 28.5235 19.962 28.6145 19.9998C28.7054 20.0375 28.7881 20.0928 28.8577 20.1625C28.9273 20.2322 28.9825 20.3149 29.0202 20.4059C29.0578 20.4969 29.0772 20.5944 29.0771 20.6929C29.0771 20.7914 29.0576 20.8889 29.0199 20.9799C28.9821 21.0709 28.9269 21.1535 28.8572 21.2231C28.7875 21.2927 28.7048 21.3479 28.6138 21.3856C28.5228 21.4232 28.4252 21.4426 28.3267 21.4425Z" fill="#FFE2CD"/>
</svg>
