<svg width="19" height="25" viewBox="0 0 19 25" fill="none" xmlns="http://www.w3.org/2000/svg">
<path d="M16.6016 4.63889H15.3809V1.70852C15.3809 1.16179 15.1164 0.644116 14.6733 0.323755C14.2303 0.00339341 13.6558 -0.0857179 13.1366 0.0855711L1.17363 4.03117C0.831887 4.14343 0.534366 4.36084 0.323585 4.65232C0.112804 4.94381 -0.000451792 5.29446 1.35452e-06 5.65417V23.291C1.35452e-06 24.2333 0.766651 25 1.70898 25H16.6016C17.5439 25 18.3105 24.2333 18.3105 23.291V6.34787C18.3105 5.40559 17.5439 4.63889 16.6016 4.63889ZM16.8457 23.291C16.8457 23.4256 16.7362 23.5351 16.6016 23.5351H1.70898C1.57437 23.5351 1.46484 23.4256 1.46484 23.291V6.34787C1.46484 6.21325 1.57437 6.10373 1.70898 6.10373H16.6016C16.7362 6.10373 16.8457 6.21325 16.8457 6.34787V23.291ZM13.5954 1.47668C13.6985 1.4427 13.7772 1.48342 13.815 1.51072C13.8527 1.53801 13.9161 1.59997 13.9161 1.70852V4.63894H4.00771L13.5954 1.47668Z" fill="black"/>
<path d="M4.27246 14.5743H14.0381C14.4426 14.5743 14.7705 14.2463 14.7705 13.8418C14.7705 13.4374 14.4426 13.1094 14.0381 13.1094H13.8259C13.5102 11.088 11.9091 9.48691 9.88769 9.17119V8.8042C9.88769 8.39971 9.55976 8.07178 9.15527 8.07178C8.75078 8.07178 8.42285 8.39971 8.42285 8.8042V9.17119C6.40146 9.48691 4.80034 11.088 4.48462 13.1094H4.27246C3.86797 13.1094 3.54004 13.4374 3.54004 13.8418C3.54004 14.2463 3.86797 14.5743 4.27246 14.5743ZM9.15527 10.5792C10.7025 10.5792 12.0017 11.662 12.335 13.1094H5.97554C6.30889 11.662 7.60805 10.5792 9.15527 10.5792ZM4.55649 16.553C4.152 16.553 3.82407 16.8809 3.82407 17.2854C3.82407 17.6899 4.152 18.0178 4.55649 18.0178H8.07212C8.47661 18.0178 8.80454 17.6899 8.80454 17.2854C8.80454 16.8809 8.47661 16.553 8.07212 16.553H4.55649ZM13.855 19.4827H4.45557C4.05107 19.4827 3.72314 19.8106 3.72314 20.2151C3.72314 20.6196 4.05107 20.9475 4.45557 20.9475H13.855C14.2595 20.9475 14.5874 20.6196 14.5874 20.2151C14.5874 19.8106 14.2595 19.4827 13.855 19.4827Z" fill="black"/>
</svg>
