<svg width="20" height="20" viewBox="0 0 20 20" fill="none" xmlns="http://www.w3.org/2000/svg">
<path fill-rule="evenodd" clip-rule="evenodd" d="M9.03571 11.5C9.03571 11.2821 8.94917 11.0732 8.79512 10.9192C8.64108 10.7651 8.43214 10.6786 8.21429 10.6786H4.51621C3.31851 10.6788 2.16992 11.1547 1.32301 12.0016C0.476102 12.8485 0.000217785 13.9971 0 15.1948V15.1981C0.000217785 16.3958 0.476102 17.5444 1.32301 18.3913C2.16992 19.2382 3.31851 19.7141 4.51621 19.7143H4.5195C5.71721 19.7141 6.8658 19.2382 7.71271 18.3913C8.55961 17.5444 9.0355 16.3958 9.03571 15.1981V11.5ZM19.7143 4.51621C19.7141 3.31851 19.2382 2.16992 18.3913 1.32301C17.5444 0.476102 16.3958 0.000217785 15.1981 0H15.1948C13.9971 0.000217785 12.8485 0.476102 12.0016 1.32301C11.1547 2.16992 10.6788 3.31851 10.6786 4.51621V8.21429C10.6786 8.43214 10.7651 8.64108 10.9192 8.79512C11.0732 8.94917 11.2821 9.03571 11.5 9.03571H15.1964C16.3946 9.03571 17.5438 8.55973 18.391 7.71247C19.2383 6.8652 19.7143 5.71607 19.7143 4.51786V4.51621ZM19.7143 15.1948C19.7141 13.9971 19.2382 12.8485 18.3913 12.0016C17.5444 11.1547 16.3958 10.6788 15.1981 10.6786H11.5C11.2821 10.6786 11.0732 10.7651 10.9192 10.9192C10.7651 11.0732 10.6786 11.2821 10.6786 11.5V15.1981C10.6788 16.3958 11.1547 17.5444 12.0016 18.3913C12.8485 19.2382 13.9971 19.7141 15.1948 19.7143H15.1981C16.3958 19.7141 17.5444 19.2382 18.3913 18.3913C19.2382 17.5444 19.7141 16.3958 19.7143 15.1981V15.1948ZM9.03571 4.51621C9.0355 3.31851 8.55961 2.16992 7.71271 1.32301C6.8658 0.476102 5.71721 0.000217785 4.5195 0H4.51621C3.31851 0.000217785 2.16992 0.476102 1.32301 1.32301C0.476102 2.16992 0.000217785 3.31851 0 4.51621V4.51786C0 5.71607 0.475987 6.8652 1.32325 7.71247C2.17051 8.55973 3.31965 9.03571 4.51786 9.03571H8.21429C8.43214 9.03571 8.64108 8.94917 8.79512 8.79512C8.94917 8.64108 9.03571 8.43214 9.03571 8.21429V4.51621Z" fill="black"/>
</svg>
