<svg width="45" height="41" viewBox="0 0 45 41" fill="none" xmlns="http://www.w3.org/2000/svg">
<path d="M28.0719 1.19678C18.9809 2.75209 12.062 10.6691 12.062 20.2038C12.062 29.7386 18.981 37.6557 28.0719 39.2109C37.1627 37.6557 44.0816 29.7386 44.0816 20.2038C44.0816 10.6691 37.1627 2.752 28.0719 1.19678Z" fill="#3F2D20"/>
<path d="M23.1119 1.13647C13.8406 2.53895 6.73486 10.5411 6.73486 20.2039C6.73486 29.8667 13.8406 37.8689 23.1121 39.271C32.3835 37.8689 39.4892 29.8667 39.4892 20.2039C39.4892 10.5411 32.3834 2.53895 23.1119 1.13647Z" fill="#84BD93"/>
<path d="M11.3606 20.2039C11.3606 13.3693 16.2732 7.68361 22.7599 6.48268C21.9168 6.32685 21.0613 6.24848 20.2039 6.24854C12.4963 6.24854 6.24854 12.4963 6.24854 20.2039C6.24854 27.9115 12.4963 34.1593 20.2039 34.1593C21.077 34.1593 21.9311 34.0782 22.7599 33.9251C16.2732 32.7242 11.3606 27.0384 11.3606 20.2039Z" fill="#755946"/>
<path d="M34.1591 20.2039C34.1591 13.3693 29.2465 7.6836 22.7598 6.48267C16.273 7.6836 11.3604 13.3693 11.3604 20.2039C11.3604 27.0384 16.273 32.7242 22.7598 33.9251C29.2465 32.7242 34.1591 27.0384 34.1591 20.2039Z" fill="#3F2D20"/>
<path d="M39.0825 5.9175C35.2668 2.10147 30.1932 0 24.7961 0H20.2039C14.8068 0 9.73318 2.10147 5.9175 5.9175C2.10147 9.73318 0 14.8072 0 20.2039C0 25.6005 2.10147 30.6745 5.9175 34.4902C9.73318 38.3059 14.8068 40.4077 20.2039 40.4077H24.7961C30.1932 40.4077 35.2668 38.3059 39.0825 34.4902C42.8985 30.6742 45 25.6005 45 20.2039C45 14.8072 42.8985 9.73318 39.0825 5.9175ZM1.83674 20.2039C1.83674 10.0762 10.0762 1.83674 20.2039 1.83674C30.3312 1.83674 38.571 10.0762 38.571 20.2039C38.571 30.3315 30.3312 38.571 20.2039 38.571C10.0762 38.571 1.83674 30.3315 1.83674 20.2039ZM30.2409 37.747C31.7759 36.8656 33.2045 35.7756 34.4902 34.4902C38.3059 30.6742 40.4074 25.6005 40.4074 20.2039C40.4074 14.8072 38.3059 9.73354 34.4899 5.9175C33.2045 4.6321 31.7759 3.54208 30.2409 2.66071C37.7184 4.98604 43.1633 11.971 43.1633 20.2039C43.1633 28.4367 37.7184 35.4217 30.2409 37.747Z" fill="#FFE2CD"/>
<path d="M24.2158 34.4867C23.8203 34.4867 23.4554 34.2295 23.3363 33.8316C23.1907 33.3458 23.4667 32.8339 23.9525 32.6883C29.4213 31.0493 33.2408 25.9132 33.2408 20.198C33.2408 13.0094 27.3923 7.16096 20.2035 7.16096C13.015 7.16096 7.16646 13.0095 7.16646 20.198C7.16646 25.9132 10.9859 31.0493 16.4547 32.6883C16.9405 32.8339 17.2166 33.3458 17.0707 33.8316C16.925 34.3174 16.4128 34.5931 15.9274 34.4475C12.9268 33.5484 10.2286 31.6697 8.32996 29.1576C6.36719 26.5604 5.33008 23.4619 5.33008 20.198C5.33008 11.9966 12.0022 5.32422 20.2035 5.32422C28.4051 5.32422 35.0775 11.9966 35.0775 20.198C35.0775 23.4619 34.0401 26.5604 32.0773 29.1576C30.1787 31.6697 27.4805 33.5486 24.4799 34.4478C24.3916 34.4743 24.3031 34.4867 24.2158 34.4867Z" fill="black"/>
<path d="M20.2031 35.0835C19.696 35.0835 19.2847 34.6721 19.2847 34.165V34.1524C19.2847 33.6452 19.6961 33.2339 20.2032 33.2339C20.7106 33.2339 21.1215 33.6452 21.1215 34.1524V34.1651C21.1215 34.6722 20.7106 35.0835 20.2031 35.0835ZM21.1222 19.3064V14.4906C22.2026 14.8237 22.9793 15.7272 22.9793 16.7871C22.9793 17.2942 23.3905 17.7056 23.8976 17.7056C24.4051 17.7056 24.816 17.2942 24.816 16.7871C24.816 14.7231 23.2268 12.9968 21.1222 12.6017V12.04C21.1222 11.5329 20.7108 11.1216 20.2038 11.1216C19.6964 11.1216 19.2854 11.5329 19.2854 12.04V12.6017C17.1805 12.9968 15.5913 14.7233 15.5913 16.7871C15.5913 18.8509 17.1805 20.5774 19.2854 20.9725V25.7887C18.205 25.4553 17.428 24.5521 17.428 23.4922C17.428 22.9851 17.0167 22.5737 16.5096 22.5737C16.0025 22.5737 15.5913 22.9851 15.5913 23.4922C15.5913 25.5559 17.1805 27.2825 19.2854 27.6776V28.3674C19.2854 28.8745 19.6964 29.2858 20.2038 29.2858C20.7109 29.2858 21.1223 28.8744 21.1223 28.3673V27.6776C23.2268 27.2825 24.816 25.5559 24.816 23.4923C24.816 21.4282 23.2268 19.7019 21.1222 19.3064ZM17.428 16.7871C17.428 15.7272 18.205 14.824 19.2854 14.4906V19.0839C18.205 18.7506 17.428 17.8473 17.428 16.7871ZM21.1222 25.7887V21.1953C22.2026 21.5287 22.9793 22.432 22.9793 23.4922C22.9793 24.5521 22.2026 25.4557 21.1222 25.7887Z" fill="#FFE2CD"/>
</svg>
