<svg width="361" height="374" viewBox="0 0 361 374" fill="none" xmlns="http://www.w3.org/2000/svg">
<path d="M272.385 67.9189C294.802 85.1067 366.372 121.571 345.095 160.075C320.658 204.297 365.139 285.033 294.443 290.787C248.364 293.578 225.549 352.305 196.439 367.21C166.802 382.228 108.184 374.164 113.051 324.471C117.825 275.733 -56.3113 224.138 18.8588 186.164C63.3352 163.697 14.9014 138.686 36.1603 101.007C78.3537 27.4156 182.405 -0.0652695 272.385 67.9189Z" fill="#C2D9BA"/>
<path d="M255.851 30.0987C264.163 30.0987 270.901 23.3608 270.901 15.0493C270.901 6.73781 264.163 0 255.851 0C247.54 0 240.802 6.73781 240.802 15.0493C240.802 23.3608 247.54 30.0987 255.851 30.0987Z" fill="#84BD93"/>
<path opacity="0.6" d="M316.082 70.2301C321.93 70.2301 326.672 65.4887 326.672 59.6398C326.672 53.791 321.93 49.0496 316.082 49.0496C310.233 49.0496 305.491 53.791 305.491 59.6398C305.491 65.4887 310.233 70.2301 316.082 70.2301Z" fill="#84BD93"/>
<path opacity="0.502" d="M363.426 21.2463C366.505 21.2463 369 18.7508 369 15.6725C369 12.5941 366.505 10.0986 363.426 10.0986C360.348 10.0986 357.852 12.5941 357.852 15.6725C357.852 18.7508 360.348 21.2463 363.426 21.2463Z" fill="white"/>
</svg>
