<svg width="351" height="296" viewBox="0 0 351 296" fill="none" xmlns="http://www.w3.org/2000/svg">
<path d="M92.9215 295.337C90.0877 295.337 87.2833 294.98 84.5864 294.276C81.9293 293.583 79.4408 292.571 77.1902 291.268C74.9151 289.95 72.9407 288.368 71.3219 286.565C69.6474 284.7 68.3871 282.634 67.5759 280.426L1.87838 101.555C0.898016 98.886 0.617433 96.1465 1.04441 93.4128C1.4568 90.7728 2.50842 88.2498 4.1701 85.914C5.83173 83.5781 8.01993 81.5467 10.6738 79.8763C13.4219 78.1467 16.5508 76.8821 19.9738 76.1176L164.285 43.8871C166.662 43.3561 169.11 43.0869 171.56 43.0869C174.394 43.0869 177.198 43.4436 179.895 44.1471C182.553 44.8402 185.041 45.8526 187.292 47.156C189.567 48.4737 191.541 50.056 193.16 51.8589C194.834 53.7237 196.095 55.7891 196.906 57.9977L262.603 236.868C263.584 239.538 263.864 242.277 263.437 245.011C263.025 247.651 261.973 250.174 260.312 252.51C258.65 254.846 256.462 256.877 253.808 258.547C251.06 260.277 247.931 261.542 244.508 262.306L100.197 294.536C97.8195 295.067 95.3717 295.337 92.9215 295.337Z" fill="#C2D9BA"/>
<path d="M171.56 43.7504C169.234 43.7504 166.867 44.0006 164.519 44.5249L20.2081 76.7554C6.65491 79.7824 -1.18527 90.8037 2.69635 101.372L68.394 280.243C71.6032 288.981 81.8184 294.673 92.9215 294.673C95.2477 294.673 97.615 294.423 99.9627 293.899L244.274 261.668C257.827 258.641 265.667 247.62 261.785 237.051L196.088 58.1803C192.878 49.4424 182.663 43.7504 171.56 43.7504ZM171.56 42.4233C174.486 42.4233 177.381 42.7916 180.165 43.5178C182.908 44.2331 185.476 45.2779 187.799 46.6232C190.147 47.9835 192.186 49.6169 193.857 51.4782C195.586 53.4034 196.887 55.5354 197.724 57.8149L263.421 236.686C264.433 239.441 264.723 242.269 264.282 245.091C263.856 247.816 262.771 250.42 261.056 252.831C259.341 255.242 257.082 257.339 254.342 259.063C251.505 260.849 248.275 262.155 244.742 262.944L100.431 295.174C97.9777 295.722 95.451 296 92.9215 296C89.9957 296 87.1005 295.632 84.3164 294.906C81.574 294.19 79.0057 293.145 76.6828 291.8C74.3344 290.44 72.2961 288.807 70.6249 286.945C68.8962 285.02 67.5952 282.888 66.758 280.608L1.06033 101.738C0.0484623 98.9828 -0.241021 96.1548 0.199748 93.3326C0.625456 90.6073 1.71094 88.003 3.426 85.592C5.14107 83.181 7.39978 81.0842 10.1394 79.36C12.9765 77.5742 16.2065 76.2687 19.7395 75.4796L164.051 43.2492C166.504 42.7012 169.031 42.4233 171.56 42.4233Z" fill="#FFF5E0"/>
<path d="M71.066 288.814C64.6295 288.814 58.4211 286.971 53.5846 283.625C48.7108 280.253 45.6222 275.613 44.8878 270.559L18.0174 85.6805C17.6164 82.9216 17.9205 80.1837 18.9212 77.5427C19.8876 74.9922 21.4597 72.6395 23.5938 70.55C25.7278 68.4604 28.3165 66.7391 31.2881 65.4339C34.365 64.0823 37.719 63.2384 41.2569 62.9258L190.415 49.7435C191.411 49.6555 192.422 49.6108 193.418 49.6108C199.854 49.6108 206.063 51.4538 210.899 54.8001C215.773 58.1723 218.862 62.8123 219.596 67.8655L246.466 252.744C246.867 255.503 246.563 258.241 245.562 260.882C244.596 263.433 243.024 265.785 240.89 267.875C238.756 269.964 236.167 271.686 233.196 272.991C230.119 274.343 226.765 275.186 223.227 275.499L74.0683 288.681C73.0723 288.769 72.0622 288.814 71.066 288.814Z" fill="#C2D9BA"/>
<path d="M193.418 50.2743C192.458 50.2743 191.488 50.3165 190.511 50.4028L41.353 63.585C27.3445 64.8231 17.2755 74.6821 18.863 85.6057L45.7335 270.485C47.2104 280.647 58.2551 288.15 71.0662 288.15C72.0261 288.15 72.9962 288.108 73.9726 288.022L223.131 274.84C237.139 273.602 247.208 263.743 245.621 252.819L218.751 67.9402C217.274 57.7779 206.229 50.2743 193.418 50.2743ZM193.418 48.9473C200.063 48.9473 206.472 50.8496 211.464 54.3038C216.495 57.7848 219.684 62.5746 220.442 67.7908L247.312 252.67C247.726 255.517 247.412 258.344 246.379 261.07C245.381 263.703 243.758 266.132 241.556 268.288C239.353 270.445 236.681 272.222 233.613 273.569C230.437 274.964 226.974 275.836 223.323 276.158L74.1642 289.341C73.1367 289.431 72.0944 289.477 71.0662 289.477C64.4213 289.477 58.0124 287.575 53.02 284.121C47.9888 280.64 44.8005 275.85 44.0425 270.634L17.172 85.7551C16.7582 82.9076 17.0722 80.0812 18.1054 77.3546C19.1029 74.7218 20.7256 72.2933 22.9282 70.1366C25.131 67.9799 27.8031 66.2032 30.8706 64.8557C34.0473 63.4603 37.5096 62.5891 41.1613 62.2664L190.32 49.0841C191.347 48.9933 192.39 48.9473 193.418 48.9473Z" fill="#FFF5E0"/>
<path d="M253.43 274.153C252.67 273.887 251.912 273.583 251.176 273.25L141.204 223.497C138.575 222.308 136.23 220.759 134.235 218.893C132.308 217.091 130.788 215.072 129.715 212.892C128.643 210.711 128.073 208.479 128.02 206.257C127.966 203.956 128.471 201.767 129.523 199.752L199.491 65.6709C201.418 61.9772 205.041 59.2335 209.69 57.9451C214.306 56.6663 219.567 56.9144 224.505 58.6436C225.265 58.9096 226.023 59.2132 226.759 59.5462L336.731 109.299C339.36 110.489 341.705 112.038 343.7 113.903C345.626 115.705 347.147 117.724 348.219 119.905C349.292 122.085 349.862 124.317 349.915 126.54C349.969 128.84 349.463 131.029 348.412 133.045L278.444 267.126C276.516 270.819 272.894 273.563 268.244 274.851C263.629 276.13 258.368 275.882 253.43 274.153Z" fill="#C2D9BA"/>
<path d="M224.286 59.2696C214.534 55.8546 204.112 58.6476 200.264 66.0205L130.297 200.101C126.162 208.024 131.184 218.234 141.512 222.906L251.484 272.659C252.2 272.983 252.922 273.272 253.649 273.526C263.401 276.941 273.823 274.148 277.67 266.776L347.638 132.695C351.772 124.772 346.751 114.562 336.423 109.89L226.45 60.1365C225.734 59.8126 225.012 59.524 224.286 59.2696ZM224.724 58.0171C225.514 58.2935 226.302 58.6092 227.067 58.9552L337.039 108.708C339.773 109.945 342.211 111.556 344.286 113.496C346.289 115.37 347.87 117.469 348.985 119.736C350.099 122.002 350.692 124.322 350.747 126.633C350.804 129.024 350.278 131.299 349.185 133.394L279.217 267.475C277.214 271.314 273.448 274.166 268.615 275.506C263.816 276.835 258.346 276.577 253.21 274.779C252.421 274.502 251.633 274.187 250.868 273.841L140.896 224.088C138.162 222.851 135.724 221.24 133.649 219.3C131.646 217.426 130.065 215.327 128.95 213.06C127.835 210.794 127.243 208.474 127.188 206.163C127.131 203.772 127.657 201.497 128.75 199.402L198.718 65.3208C200.721 61.4815 204.486 58.6296 209.32 57.2903C214.118 55.9607 219.589 56.2188 224.724 58.0171Z" fill="#FFF5E0"/>
<path d="M255.046 250.34C254.477 250.234 253.902 250.11 253.338 249.972L115.758 216.431C112.489 215.634 109.456 214.363 106.745 212.654C104.126 211.003 101.917 209.015 100.178 206.746C98.4389 204.477 97.2576 202.04 96.6667 199.503C96.055 196.876 96.1063 194.257 96.8193 191.718L144.515 21.8987C145.862 17.105 149.468 13.1058 154.669 10.6377C159.846 8.18101 166.111 7.46737 172.311 8.62822C172.88 8.73481 173.455 8.85862 174.019 8.99627L311.599 42.5378C314.869 43.335 317.901 44.6058 320.613 46.3151C323.231 47.9657 325.44 49.9533 327.179 52.2227C328.918 54.492 330.1 56.9291 330.69 59.4661C331.302 62.093 331.251 64.7121 330.538 67.2506L282.842 237.07C281.495 241.864 277.89 245.863 272.688 248.331C267.511 250.788 261.246 251.501 255.046 250.34Z" fill="#C2D9BA"/>
<path d="M172.188 9.28012C159.849 6.96961 148.039 12.4941 145.341 22.0998L97.6449 191.919C94.8269 201.953 103.017 212.641 115.938 215.791L253.517 249.332C254.069 249.467 254.618 249.585 255.168 249.688C267.508 251.998 279.318 246.474 282.016 236.868L329.712 67.0489C332.53 57.0152 324.34 46.3275 311.419 43.1773L173.839 9.63579C173.288 9.50138 172.738 9.38309 172.188 9.28012ZM172.433 7.97575C173.021 8.08589 173.615 8.21388 174.199 8.35623L311.778 41.8978C315.16 42.7221 318.296 44.0364 321.1 45.8044C323.808 47.5114 326.093 49.5667 327.891 51.9132C329.689 54.2594 330.91 56.7793 331.521 59.4026C332.154 62.1191 332.101 64.8272 331.364 67.4516L283.668 237.271C282.275 242.227 278.547 246.363 273.169 248.915C267.815 251.455 261.336 252.193 254.924 250.992C254.335 250.882 253.741 250.754 253.158 250.612L115.578 217.07C112.197 216.246 109.061 214.932 106.257 213.164C103.549 211.457 101.264 209.401 99.466 207.055C97.6681 204.709 96.4467 202.189 95.8358 199.566C95.2031 196.849 95.256 194.141 95.9932 191.516L143.689 21.6971C145.081 16.7406 148.81 12.6055 154.188 10.0534C159.541 7.51301 166.021 6.77515 172.433 7.97575Z" fill="#FFF5E0"/>
<path d="M269.5 32H82.5C67.3122 32 55 40.5537 55 51.1053V254.895C55 265.446 67.3122 274 82.5 274H269.5C284.688 274 297 265.446 297 254.895V51.1053C297 40.5537 284.688 32 269.5 32Z" fill="#C2D9BA"/>
</svg>
